<svg width="440" height="75" viewBox="0 0 440 75" fill="none" xmlns="http://www.w3.org/2000/svg">
<g clip-path="url(#clip0_122_13)">
<path d="M211.941 0H210.507V75H211.941V0Z" fill="white" fill-opacity="0.2"/>
<path d="M304.952 11.6438H303.518V64.6955H304.952V11.6438Z" fill="white"/>
<path d="M334.394 55.793C334.441 55.9056 334.464 56.0275 334.464 56.1589C334.464 56.2808 334.408 56.4028 334.295 56.5247C334.183 56.6466 334.005 56.7076 333.761 56.7076C333.517 56.7076 333.339 56.5763 333.226 56.3136L332.311 54.1187H327.528L326.613 56.3136C326.5 56.5763 326.322 56.7076 326.078 56.7076C325.834 56.7076 325.656 56.6466 325.544 56.5247C325.431 56.4028 325.375 56.2808 325.375 56.1589C325.375 56.0275 325.398 55.9056 325.445 55.793L329.033 47.3229C329.202 46.9383 329.474 46.746 329.849 46.746H329.99C330.365 46.746 330.637 46.9383 330.806 47.3229L334.394 55.793ZM331.819 52.9509L329.919 48.3781L328.02 52.9509H331.819ZM343.839 56.0744C343.839 56.2527 343.778 56.4028 343.656 56.5247C343.534 56.6466 343.379 56.7076 343.191 56.7076C343.004 56.7076 342.849 56.6513 342.727 56.5388C342.614 56.4168 342.558 56.2621 342.558 56.0744V55.6523C342.558 54.8926 342.474 54.3344 342.305 53.978C342.136 53.6216 341.906 53.3402 341.615 53.1338C341.325 52.9181 340.912 52.8102 340.377 52.8102H337.465V56.0744C337.465 56.2527 337.399 56.4028 337.268 56.5247C337.146 56.6466 336.996 56.7076 336.818 56.7076C336.639 56.7076 336.489 56.6466 336.367 56.5247C336.245 56.4028 336.184 56.2527 336.184 56.0744V47.4636C336.184 47.2853 336.245 47.1353 336.367 47.0133C336.489 46.882 336.639 46.8163 336.818 46.8163H340.096C341.381 46.8163 342.352 47.0884 343.008 47.6324C343.618 48.1483 343.923 48.8284 343.923 49.6726C343.923 50.2166 343.768 50.7231 343.459 51.1921C343.158 51.6611 342.699 52.0035 342.08 52.2192C342.755 52.3975 343.243 52.8852 343.543 53.6825C343.74 54.2172 343.839 54.7988 343.839 55.4272V56.0744ZM340.011 51.6002C340.799 51.6002 341.433 51.4454 341.911 51.1358C342.399 50.8263 342.643 50.3714 342.643 49.7711C342.643 49.2082 342.455 48.7861 342.08 48.5047C341.63 48.1858 340.917 48.0264 339.941 48.0264H337.465V51.6002H340.011ZM351.393 56.7217C351.13 56.7592 350.849 56.778 350.549 56.778C349.057 56.778 347.866 56.3043 346.975 55.3569C346.084 54.4189 345.629 53.2088 345.61 51.7268C345.629 50.2447 346.084 49.0347 346.975 48.0967C347.866 47.1493 349.057 46.6756 350.549 46.6756C352.031 46.6756 353.222 47.1493 354.123 48.0967C354.995 49.0253 355.45 50.2354 355.487 51.7268C355.469 52.8336 355.206 53.7951 354.699 54.6112C354.193 55.4272 353.485 56.0229 352.575 56.3981L353.813 57.7629C353.926 57.8754 353.982 58.0114 353.982 58.1709C353.982 58.3397 353.921 58.4804 353.799 58.593C353.686 58.7149 353.541 58.7759 353.363 58.7759C353.194 58.7759 353.049 58.7009 352.927 58.5508L351.393 56.7217ZM350.549 55.582C351.693 55.582 352.594 55.2115 353.25 54.4705C353.888 53.7576 354.207 52.843 354.207 51.7268C354.207 50.6106 353.888 49.696 353.25 48.9831C352.594 48.2421 351.693 47.8716 350.549 47.8716C349.404 47.8716 348.504 48.2421 347.847 48.9831C347.209 49.696 346.891 50.6106 346.891 51.7268C346.891 52.843 347.209 53.7576 347.847 54.4705C348.504 55.2115 349.404 55.582 350.549 55.582ZM364.978 46.746C365.156 46.746 365.306 46.8116 365.428 46.943C365.56 47.0649 365.625 47.215 365.625 47.3932V52.9509C365.625 54.1797 365.184 55.1458 364.303 55.8493C363.543 56.4684 362.638 56.778 361.587 56.778C360.518 56.778 359.608 56.4684 358.857 55.8493C357.985 55.1458 357.549 54.1797 357.549 52.9509V47.3932C357.549 47.215 357.61 47.0649 357.732 46.943C357.854 46.8116 358.004 46.746 358.182 46.746C358.36 46.746 358.51 46.8116 358.632 46.943C358.764 47.0649 358.829 47.215 358.829 47.3932V52.9931C358.829 53.8279 359.115 54.4845 359.688 54.9629C360.213 55.3944 360.846 55.6101 361.587 55.6101C362.328 55.6101 362.961 55.3944 363.487 54.9629C364.059 54.4845 364.345 53.8279 364.345 52.9931V47.3932C364.345 47.215 364.406 47.0649 364.528 46.943C364.65 46.8116 364.8 46.746 364.978 46.746ZM368.915 46.746C369.093 46.746 369.243 46.8116 369.365 46.943C369.497 47.0649 369.562 47.215 369.562 47.3932V56.0744C369.562 56.2527 369.497 56.4028 369.365 56.5247C369.243 56.6466 369.093 56.7076 368.915 56.7076C368.737 56.7076 368.587 56.6466 368.465 56.5247C368.343 56.4028 368.282 56.2527 368.282 56.0744V47.3932C368.282 47.215 368.343 47.0649 368.465 46.943C368.587 46.8116 368.737 46.746 368.915 46.746ZM378.724 46.8163C378.893 46.8163 379.034 46.8773 379.146 46.9992C379.268 47.1118 379.329 47.2525 379.329 47.4213C379.329 47.5902 379.268 47.7309 379.146 47.8434C379.034 47.956 378.893 48.0123 378.724 48.0123H375.868V56.0744C375.868 56.2527 375.802 56.4028 375.671 56.5247C375.549 56.6466 375.399 56.7076 375.221 56.7076C375.042 56.7076 374.892 56.6466 374.77 56.5247C374.648 56.4028 374.587 56.2527 374.587 56.0744V48.0123H371.717C371.548 48.0123 371.408 47.956 371.295 47.8434C371.182 47.7309 371.126 47.5902 371.126 47.4213C371.126 47.2525 371.182 47.1118 371.295 46.9992C371.408 46.8773 371.548 46.8163 371.717 46.8163H378.724ZM387.453 55.3971C387.628 55.3971 387.774 55.4603 387.891 55.5868C388.017 55.7035 388.08 55.8494 388.08 56.0245C388.08 56.1996 388.017 56.3455 387.891 56.4622C387.774 56.5789 387.628 56.6373 387.453 56.6373H381.602C381.418 56.6373 381.262 56.574 381.136 56.4476C381.009 56.3211 380.946 56.1655 380.946 55.9807V47.1246C380.946 46.9398 381.009 46.7841 381.136 46.6577C381.262 46.5215 381.418 46.4534 381.602 46.4534H387.453C387.628 46.4534 387.774 46.5167 387.891 46.6431C388.017 46.7598 388.08 46.9057 388.08 47.0808C388.08 47.2559 388.017 47.4018 387.891 47.5185C387.774 47.6352 387.628 47.6936 387.453 47.6936H382.274V50.918H386.928C387.103 50.918 387.249 50.9812 387.365 51.1076C387.492 51.2244 387.555 51.3703 387.555 51.5453C387.555 51.7204 387.492 51.8663 387.365 51.983C387.249 52.0998 387.103 52.1581 386.928 52.1581H382.274V55.3971H387.453ZM397.46 54.8281C397.537 54.7892 397.644 54.7697 397.781 54.7697C397.927 54.7697 398.048 54.8281 398.145 54.9448C398.252 55.0518 398.306 55.1783 398.306 55.3242C398.306 55.5868 398.199 55.7716 397.985 55.8786C397.528 56.1315 397.037 56.3455 396.511 56.5205C395.996 56.6956 395.373 56.7832 394.644 56.7832C393.924 56.7832 393.253 56.6664 392.63 56.433C392.008 56.1898 391.468 55.8397 391.011 55.3825C390.038 54.4293 389.552 53.1502 389.552 51.5453C389.552 49.9404 390.038 48.6614 391.011 47.7082C391.954 46.7744 393.17 46.3075 394.658 46.3075C395.378 46.3075 395.996 46.3951 396.511 46.5702C397.037 46.7452 397.435 46.9106 397.708 47.0662C397.99 47.2121 398.16 47.3337 398.218 47.431C398.277 47.5185 398.306 47.6352 398.306 47.7811C398.306 47.9173 398.252 48.0437 398.145 48.1605C398.048 48.2675 397.927 48.321 397.781 48.321C397.644 48.321 397.537 48.3015 397.46 48.2626C397.071 48.0583 396.672 47.893 396.263 47.7665C395.855 47.6401 395.344 47.5769 394.731 47.5769C394.128 47.5769 393.579 47.679 393.083 47.8833C392.596 48.0875 392.188 48.3696 391.857 48.7295C391.205 49.4395 390.88 50.3781 390.88 51.5453C390.88 52.7125 391.205 53.6512 391.857 54.3612C392.567 55.1296 393.545 55.5138 394.79 55.5138C395.364 55.5138 395.855 55.4506 396.263 55.3242C396.672 55.1977 397.071 55.0324 397.46 54.8281ZM407.005 46.4534C407.18 46.4534 407.326 46.5167 407.443 46.6431C407.569 46.7598 407.632 46.9057 407.632 47.0808C407.632 47.2559 407.569 47.4018 407.443 47.5185C407.326 47.6352 407.18 47.6936 407.005 47.6936H404.043V56.0537C404.043 56.2385 403.975 56.3941 403.839 56.5205C403.713 56.647 403.557 56.7102 403.372 56.7102C403.187 56.7102 403.032 56.647 402.905 56.5205C402.779 56.3941 402.716 56.2385 402.716 56.0537V47.6936H399.739C399.564 47.6936 399.418 47.6352 399.302 47.5185C399.185 47.4018 399.126 47.2559 399.126 47.0808C399.126 46.9057 399.185 46.7598 399.302 46.6431C399.418 46.5167 399.564 46.4534 399.739 46.4534H407.005ZM416.887 46.3805C417.072 46.3805 417.228 46.4486 417.354 46.5847C417.49 46.7112 417.558 46.8668 417.558 47.0516V52.8147C417.558 54.0889 417.101 55.0907 416.187 55.8202C415.399 56.4622 414.46 56.7832 413.371 56.7832C412.262 56.7832 411.319 56.4622 410.541 55.8202C409.636 55.0907 409.184 54.0889 409.184 52.8147V47.0516C409.184 46.8668 409.247 46.7112 409.373 46.5847C409.5 46.4486 409.656 46.3805 409.84 46.3805C410.025 46.3805 410.181 46.4486 410.307 46.5847C410.443 46.7112 410.511 46.8668 410.511 47.0516V52.8584C410.511 53.7241 410.808 54.405 411.401 54.901C411.946 55.3485 412.603 55.5722 413.371 55.5722C414.14 55.5722 414.796 55.3485 415.341 54.901C415.934 54.405 416.231 53.7241 416.231 52.8584V47.0516C416.231 46.8668 416.294 46.7112 416.42 46.5847C416.547 46.4486 416.702 46.3805 416.887 46.3805ZM428.25 56.0537C428.25 56.2385 428.187 56.3941 428.06 56.5205C427.934 56.647 427.774 56.7102 427.579 56.7102C427.384 56.7102 427.224 56.6518 427.098 56.5351C426.981 56.4087 426.922 56.2482 426.922 56.0537V55.616C426.922 54.8281 426.835 54.2494 426.66 53.8797C426.485 53.5101 426.246 53.2183 425.945 53.0043C425.643 52.7806 425.215 52.6688 424.661 52.6688H421.641V56.0537C421.641 56.2385 421.573 56.3941 421.437 56.5205C421.31 56.647 421.155 56.7102 420.97 56.7102C420.785 56.7102 420.629 56.647 420.503 56.5205C420.376 56.3941 420.313 56.2385 420.313 56.0537V47.1246C420.313 46.9398 420.376 46.7841 420.503 46.6577C420.629 46.5215 420.785 46.4534 420.97 46.4534H424.369C425.702 46.4534 426.708 46.7355 427.389 47.2997C428.022 47.8346 428.338 48.5398 428.338 49.4152C428.338 49.9793 428.177 50.5046 427.856 50.9909C427.545 51.4773 427.068 51.8323 426.426 52.056C427.127 52.2408 427.633 52.7466 427.944 53.5734C428.148 54.1278 428.25 54.7308 428.25 55.3825V56.0537ZM424.282 51.414C425.099 51.414 425.755 51.2535 426.251 50.9326C426.757 50.6116 427.01 50.1398 427.01 49.5173C427.01 48.9337 426.815 48.496 426.426 48.2042C425.96 47.8735 425.22 47.7082 424.209 47.7082H421.641V51.414H424.282ZM439.016 55.7619C439.065 55.8786 439.089 56.005 439.089 56.1412C439.089 56.2676 439.031 56.3941 438.914 56.5205C438.797 56.647 438.613 56.7102 438.36 56.7102C438.107 56.7102 437.922 56.574 437.805 56.3017L436.857 54.0256H431.896L430.948 56.3017C430.831 56.574 430.647 56.7102 430.394 56.7102C430.141 56.7102 429.956 56.647 429.839 56.5205C429.722 56.3941 429.664 56.2676 429.664 56.1412C429.664 56.005 429.688 55.8786 429.737 55.7619L433.458 46.9787C433.633 46.5799 433.915 46.3805 434.304 46.3805H434.45C434.839 46.3805 435.121 46.5799 435.296 46.9787L439.016 55.7619ZM436.346 52.8147L434.377 48.0729L432.407 52.8147H436.346Z" fill="white"/>
<path d="M341.358 32.9785C341.776 32.9785 342.124 33.1294 342.402 33.4311C342.704 33.7097 342.855 34.0578 342.855 34.4756C342.855 34.8934 342.704 35.2416 342.402 35.5201C342.124 35.7986 341.776 35.9379 341.358 35.9379H327.397C326.956 35.9379 326.584 35.787 326.282 35.4853C325.981 35.1835 325.83 34.8122 325.83 34.3712V13.2378C325.83 12.7968 325.981 12.4255 326.282 12.1237C326.584 11.7988 326.956 11.6363 327.397 11.6363H341.358C341.776 11.6363 342.124 11.7872 342.402 12.0889C342.704 12.3674 342.855 12.7156 342.855 13.1334C342.855 13.5512 342.704 13.8993 342.402 14.1779C342.124 14.4564 341.776 14.5957 341.358 14.5957H328.998V22.29H340.104C340.522 22.29 340.87 22.4409 341.149 22.7426C341.451 23.0211 341.601 23.3693 341.601 23.7871C341.601 24.2049 341.451 24.5531 341.149 24.8316C340.87 25.1101 340.522 25.2494 340.104 25.2494H328.998V32.9785H341.358ZM367.877 33.8489C367.993 34.1275 368.051 34.4292 368.051 34.7542C368.051 35.0559 367.912 35.3576 367.633 35.6594C367.355 35.9611 366.914 36.112 366.31 36.112C365.707 36.112 365.266 35.787 364.987 35.1371L362.724 29.7058H350.887L348.624 35.1371C348.345 35.787 347.904 36.112 347.301 36.112C346.697 36.112 346.256 35.9611 345.978 35.6594C345.699 35.3576 345.56 35.0559 345.56 34.7542C345.56 34.4292 345.618 34.1275 345.734 33.8489L354.612 12.8897C355.03 11.938 355.703 11.4622 356.631 11.4622H356.98C357.908 11.4622 358.581 11.938 358.999 12.8897L367.877 33.8489ZM361.506 26.8161L356.805 15.5009L352.105 26.8161H361.506ZM381.813 11.6363C385.039 11.6363 387.464 12.4719 389.089 14.1431C390.435 15.4893 391.109 17.2301 391.109 19.3655C391.109 21.5008 390.435 23.2416 389.089 24.5879C387.464 26.259 385.039 27.0946 381.813 27.0946H375.476V34.5453C375.476 34.9863 375.314 35.3576 374.989 35.6594C374.687 35.9611 374.316 36.112 373.875 36.112C373.434 36.112 373.062 35.9611 372.76 35.6594C372.459 35.3576 372.308 34.9863 372.308 34.5453V13.2378C372.308 12.7968 372.459 12.4255 372.76 12.1237C373.062 11.7988 373.434 11.6363 373.875 11.6363H381.813ZM381.499 24.1004C383.89 24.1004 385.619 23.5898 386.687 22.5685C387.522 21.7794 387.94 20.7117 387.94 19.3655C387.94 17.2069 386.861 15.7678 384.702 15.0483C383.867 14.7697 382.799 14.6305 381.499 14.6305H375.476V24.1004H381.499Z" fill="white"/>
<path d="M417.783 34.8404C416.337 36.3254 414.666 37.0679 412.771 37.0679C410.895 37.0679 409.273 36.4035 407.906 35.0749C406.421 33.6095 405.678 31.6849 405.678 29.3011C405.678 26.9564 406.421 25.0416 407.906 23.5566C409.254 22.2084 410.875 21.5343 412.771 21.5343C414.666 21.5343 416.337 22.2768 417.783 23.7618V16.5811C417.783 16.1904 417.91 15.868 418.164 15.614C418.418 15.36 418.73 15.233 419.101 15.233C419.492 15.233 419.815 15.36 420.069 15.614C420.323 15.868 420.45 16.1904 420.45 16.5811V35.6024C420.45 35.9737 420.323 36.2863 420.069 36.5403C419.815 36.7943 419.492 36.9213 419.101 36.9213C418.73 36.9213 418.418 36.7943 418.164 36.5403C417.91 36.2863 417.783 35.9737 417.783 35.6024V34.8404ZM417.783 26.2237C416.454 24.7582 414.91 24.0255 413.152 24.0255C410.924 24.0255 409.449 25.022 408.726 27.015C408.472 27.6793 408.345 28.4414 408.345 29.3011C408.345 30.9814 408.804 32.3003 409.723 33.2577C410.563 34.137 411.706 34.5766 413.152 34.5766C414.91 34.5766 416.454 33.8439 417.783 32.3785V26.2237ZM426.893 30.239C427.05 31.5676 427.548 32.6227 428.388 33.4043C429.228 34.1859 430.401 34.5766 431.905 34.5766C433.41 34.5766 434.67 34.3226 435.686 33.8146C436.038 33.6388 436.341 33.5508 436.595 33.5508C436.849 33.5508 437.093 33.6583 437.327 33.8732C437.562 34.0882 437.679 34.3324 437.679 34.6059C437.679 35.114 437.464 35.4852 437.034 35.7197C436.624 35.9346 436.253 36.1202 435.92 36.2765C435.588 36.4328 435.227 36.5696 434.836 36.6869C433.957 36.9409 432.941 37.0679 431.788 37.0679C429.385 37.0679 427.519 36.3938 426.19 35.0456C424.861 33.6974 424.197 31.7825 424.197 29.3011C424.197 27.1518 424.754 25.364 425.868 23.9376C427.118 22.3354 428.896 21.5343 431.202 21.5343C433.39 21.5343 435.119 22.2768 436.389 23.7618C437.581 25.149 438.177 26.8685 438.177 28.9201C438.177 29.2913 438.05 29.6039 437.796 29.8579C437.562 30.112 437.239 30.239 436.829 30.239H426.893ZM431.202 23.7911C429.463 23.7911 428.193 24.5629 427.392 26.1064C427.099 26.6535 426.932 27.3081 426.893 28.0701H435.539C435.461 26.6828 434.953 25.5887 434.015 24.7876C433.234 24.1232 432.296 23.7911 431.202 23.7911Z" fill="white"/>
<path d="M239.639 18.1182C238.798 17.3103 237.436 17.3103 236.596 18.1182C235.756 18.9262 235.756 20.2361 236.596 21.0441L246.576 30.6415C247.416 31.4494 248.778 31.4494 249.618 30.6415C250.458 29.8335 250.458 28.5236 249.618 27.7156L239.639 18.1182Z" fill="white"/>
<path d="M285.851 24.2171L272.081 11.164C271.769 10.8742 271.354 10.7043 270.917 10.7043H252.99C251.057 10.7043 249.488 12.1935 249.488 14.0225V21.0788C249.488 22.9178 251.057 24.397 252.99 24.397L270.429 24.377V43.5768C270.429 47.1848 267.394 50.1033 263.643 50.1033H243.388V42.5473V34.7515C243.388 32.7925 241.736 31.1934 239.688 31.1934H232.486C230.47 31.1934 228.839 32.7425 228.797 34.6815V34.7515L228.818 42.4474V42.9071L228.839 51.2327C228.839 60.018 237.142 65.625 242.848 65.625H271.447C279.865 65.625 286.682 59.0585 286.682 50.9628V26.5159C286.682 25.5664 286.641 24.9867 285.82 24.2071L285.851 24.2171ZM285.56 50.9728C285.56 58.4388 279.241 64.5256 271.478 64.5256H242.879C238.389 64.5256 230.013 59.958 230.013 51.2427V46.4752C232.143 49.6035 234.949 51.2726 243.876 51.2127H263.663C268.038 51.2127 271.603 47.7845 271.603 43.5867V12.2235C271.603 12.0736 271.79 11.9936 271.894 12.1035L284.999 24.9767C285.529 25.4864 285.55 25.6863 285.55 26.5358V50.9828L285.56 50.9728Z" fill="white"/>
<path d="M48.1267 39.349H18.6126C18.3632 38.7093 18.2281 38.0297 18.1969 37.3501C18.2177 36.7004 18.3528 36.0508 18.6126 35.4511H48.1267C48.2099 34.3817 48.345 33.3122 48.5424 32.2528H16.8459C15.5261 33.692 14.7882 35.531 14.7674 37.45C14.7362 39.379 15.4845 41.238 16.8459 42.6472H48.5424C48.3346 41.4479 48.2307 40.3485 48.1267 39.349Z" fill="white"/>
<path d="M53.219 53.5415H9.25955C5.43518 48.944 3.34632 43.237 3.34632 37.3501C3.34632 31.4633 5.43518 25.7563 9.25955 21.1588H53.1151C53.9257 20.0494 54.7883 18.9799 55.7132 17.9605H7.7007C2.74357 23.2876 0 30.194 0 37.3501C0 44.5063 2.74357 51.4026 7.7007 56.7398H55.7132C54.8194 55.7203 53.988 54.6509 53.219 53.5415Z" fill="white"/>
<path d="M49.5817 46.4452H13.9361C11.8992 43.8166 10.808 40.6283 10.8184 37.3501C10.8184 34.0718 11.9096 30.8835 13.9361 28.2549H49.5817C49.9662 27.1655 50.4235 26.0961 50.9327 25.0566H12.3772C9.21795 28.4348 7.47205 32.8125 7.47205 37.3501C7.47205 41.8877 9.21795 46.2653 12.3772 49.6435H50.9327C50.4235 48.6041 49.9662 47.5347 49.5817 46.4452Z" fill="white"/>
<path d="M68.3917 32.9524C67.8305 32.3428 67.394 31.6331 67.1342 30.8535C66.864 30.084 66.7601 29.2644 66.8329 28.4548V17.9604H69.6388V28.3549C69.5972 28.8546 69.6492 29.3643 69.8155 29.8441C69.9713 30.3238 70.2312 30.7736 70.5741 31.1534C71.4263 31.7431 72.4447 32.0529 73.4839 32.0529C74.5232 32.0529 75.5416 31.7331 76.3938 31.1534C76.7367 30.7736 76.9965 30.3238 77.1524 29.8441C77.3083 29.3643 77.3707 28.8546 77.3291 28.3549V17.9604H80.135V28.5548C80.1974 29.3643 80.0934 30.1839 79.8336 30.9535C79.5738 31.7231 79.1374 32.4427 78.5762 33.0524C77.5369 34.0518 75.8742 34.4516 73.5879 34.4516C71.3016 34.4516 69.4309 33.9519 68.3917 32.9524Z" fill="white"/>
<path d="M92.8138 23.4575C93.2502 23.9272 93.5828 24.4869 93.801 25.0866C94.0193 25.6863 94.1024 26.326 94.0609 26.9556V34.0518H91.3589V27.4554C91.4212 26.6458 91.203 25.8362 90.7353 25.1566C90.4755 24.9067 90.1741 24.7168 89.8312 24.5969C89.4882 24.4769 89.1245 24.427 88.7608 24.457C88.3555 24.447 87.9606 24.5069 87.5864 24.6469C87.2123 24.7868 86.8694 24.9967 86.5784 25.2565C86.038 25.9062 85.7782 26.7257 85.8509 27.5553V34.0518H83.1489V22.558H85.8509V23.8573C86.2874 23.3076 86.859 22.8778 87.5137 22.5979C88.1684 22.3181 88.8855 22.1982 89.5922 22.2581C90.1845 22.2381 90.7769 22.3381 91.3277 22.548C91.8785 22.7579 92.3877 23.0677 92.8138 23.4575Z" fill="white"/>
<path d="M99.2569 22.558H96.5549V34.0518H99.2569V22.558Z" fill="white"/>
<path d="M100.92 22.558H103.83L107.051 31.1534L110.273 22.558H113.183L108.61 34.0518H105.596L100.92 22.558Z" fill="white"/>
<path d="M123.055 30.8535C123.17 30.6037 123.242 30.3338 123.263 30.054H125.965C125.882 31.1634 125.362 32.2028 124.51 32.9524C123.959 33.4521 123.284 33.802 122.536 33.9519C121.725 34.2017 120.883 34.3317 120.042 34.3517C118.815 34.3717 117.599 34.1018 116.508 33.5521C115.552 33.0224 114.793 32.2128 114.326 31.2533C113.879 30.3138 113.671 29.2844 113.702 28.2549C113.681 27.7152 113.713 27.1855 113.806 26.6558C113.9 26.176 114.035 25.7063 114.222 25.2565C114.648 24.297 115.375 23.4975 116.3 22.9577C117.36 22.428 118.535 22.1582 119.73 22.1582C120.925 22.1582 122.099 22.428 123.159 22.9577C124.084 23.4575 124.812 24.2271 125.238 25.1566C125.477 25.7063 125.643 26.276 125.757 26.8557C125.851 27.5553 125.882 28.2549 125.861 28.9545H116.3C116.3 29.5142 116.446 30.064 116.716 30.5537C116.945 31.0634 117.35 31.4832 117.859 31.7531C118.472 32.0529 119.148 32.1828 119.834 32.1528L121.289 31.9529L122.328 31.4532C122.744 31.3533 122.847 31.0534 123.055 30.8535ZM116.82 25.9561C116.612 26.286 116.498 26.6658 116.508 27.0556H123.263C123.263 26.6358 123.149 26.226 122.951 25.8562C122.681 25.3665 122.286 24.9567 121.808 24.6568C121.237 24.357 120.592 24.2171 119.938 24.2571C119.304 24.2371 118.68 24.387 118.129 24.6868C117.579 24.9867 117.121 25.4264 116.82 25.9561Z" fill="white"/>
<path d="M135.318 22.458V24.7568H134.071C133.624 24.7268 133.188 24.7968 132.772 24.9467C132.356 25.1066 131.982 25.3465 131.681 25.6563C131.099 26.4059 130.798 27.3254 130.849 28.2549V34.1518H128.147V22.558H130.849V23.8573C131.203 23.3575 131.691 22.9677 132.252 22.6979C132.814 22.438 133.448 22.3181 134.071 22.3581L135.318 22.458Z" fill="white"/>
<path d="M138.54 33.852C137.76 33.5021 137.137 32.9025 136.773 32.1529C136.472 31.5632 136.326 30.9135 136.357 30.2539H138.955C138.955 30.6237 139.039 31.0035 139.163 31.3533C139.475 32.1529 140.306 32.4527 141.45 32.4527C142.593 32.4527 143.32 32.1529 143.632 31.5532C143.715 31.3633 143.746 31.1634 143.736 30.9535C143.746 30.7436 143.715 30.5437 143.632 30.3538L143.112 29.7541L142.177 29.3544L140.618 29.0545C139.828 28.8846 139.059 28.6147 138.332 28.2549C137.729 27.9451 137.251 27.4554 136.981 26.8557C136.804 26.4459 136.732 25.9961 136.773 25.5564C136.773 25.0766 136.877 24.5969 137.085 24.1571C137.438 23.5175 137.979 22.9977 138.644 22.6579C139.517 22.2581 140.483 22.0882 141.45 22.1582C142.406 22.1582 143.362 22.3281 144.256 22.6579C144.973 22.9578 145.555 23.4875 145.918 24.1571C146.137 24.6968 146.251 25.2765 146.23 25.8562H143.632C143.611 25.5164 143.538 25.1766 143.424 24.8567C143.268 24.5569 143.008 24.307 142.697 24.1571C142.312 23.9772 141.876 23.9073 141.45 23.9572C140.41 23.9572 139.787 24.2571 139.579 24.7568C139.475 24.9067 139.444 25.0866 139.475 25.2565C139.444 25.4264 139.475 25.6063 139.579 25.7563C139.621 25.8962 139.704 26.0261 139.818 26.1361C139.922 26.236 140.057 26.316 140.213 26.356L141.148 26.7557L142.603 27.0556C143.476 27.2455 144.318 27.5453 145.097 27.9551C145.721 28.2649 146.23 28.7547 146.552 29.3544C146.729 29.7641 146.802 30.2139 146.76 30.6537C146.76 31.1734 146.656 31.6831 146.448 32.1529C146.085 32.8725 145.451 33.4422 144.682 33.752C143.736 34.1718 142.707 34.3817 141.668 34.3517C140.608 34.3717 139.548 34.2018 138.55 33.852H138.54Z" fill="white"/>
<path d="M151.53 22.558H148.828V34.0518H151.53V22.558Z" fill="white"/>
<path d="M165.768 17.9604V34.0518H163.17V32.6526C162.733 33.1923 162.162 33.6021 161.507 33.8519C160.79 34.1418 160 34.2817 159.221 34.2517C158.161 34.2517 157.111 33.9819 156.207 33.4522C155.376 32.9524 154.721 32.2228 154.336 31.3533C154.118 30.8735 153.941 30.3638 153.817 29.8541C153.692 29.2944 153.619 28.7247 153.609 28.155C153.588 27.0556 153.796 25.9661 154.232 24.9567C154.617 24.0872 155.272 23.3575 156.103 22.8578C157.007 22.3281 158.057 22.0482 159.117 22.0582C159.896 22.0382 160.676 22.1682 161.403 22.458C162.037 22.7379 162.609 23.1477 163.066 23.6574V17.9604H165.768ZM163.17 27.9551C163.222 27.0256 162.92 26.1061 162.338 25.3565C162.027 25.0566 161.652 24.8168 161.247 24.6568C160.832 24.4969 160.395 24.437 159.948 24.457C159.335 24.417 158.711 24.5569 158.181 24.8567C157.672 25.1266 157.267 25.5464 157.038 26.0561C156.727 26.7457 156.581 27.5053 156.623 28.2549C156.581 29.0045 156.727 29.7641 157.038 30.4538C157.277 30.9635 157.683 31.3833 158.181 31.6531C158.722 31.933 159.335 32.0729 159.948 32.0529C160.395 32.0729 160.832 32.0029 161.247 31.853C161.663 31.6931 162.037 31.4632 162.338 31.1534C162.65 30.7936 162.889 30.3838 163.024 29.934C163.17 29.4843 163.211 29.0145 163.17 28.5548V27.9551Z" fill="white"/>
<path d="M179.278 27.2555V34.0518H176.576V32.7525C176.077 33.3022 175.453 33.732 174.747 34.0118C174.04 34.2917 173.281 34.4016 172.523 34.3517C171.598 34.3517 170.683 34.1918 169.821 33.8519C169.114 33.5721 168.553 33.0324 168.262 32.3527C168.054 31.873 167.95 31.3633 167.95 30.8535C167.929 30.3338 168.033 29.8241 168.262 29.3543C168.449 28.9246 168.74 28.5448 169.093 28.2349C169.457 27.9251 169.873 27.6952 170.34 27.5553C171.556 27.2055 172.814 27.0356 174.082 27.0556H176.576V26.0561C176.555 25.8462 176.482 25.6363 176.368 25.4564C176.056 24.6568 175.225 24.357 173.874 24.357C173.302 24.337 172.741 24.447 172.211 24.6568C171.816 24.8168 171.483 25.0966 171.276 25.4564C171.161 25.7063 171.089 25.9761 171.068 26.256H168.366C168.345 25.6763 168.459 25.0966 168.678 24.5569C169.405 23.0577 171.068 22.2581 173.77 22.2581C174.882 22.2081 175.983 22.418 176.991 22.8578C177.802 23.2176 178.436 23.8573 178.758 24.6568C179.184 25.4564 179.361 26.3559 179.278 27.2555ZM176.576 29.0545H174.289L172.107 29.2544C171.858 29.2844 171.629 29.3743 171.432 29.5142C171.234 29.6542 171.068 29.8441 170.964 30.054C170.87 30.2738 170.839 30.5137 170.86 30.7536C170.839 30.9935 170.87 31.2333 170.964 31.4532C171.141 31.783 171.432 32.0329 171.795 32.1528C172.263 32.3227 172.762 32.3927 173.25 32.3527C173.936 32.3927 174.622 32.2528 175.225 31.9529C175.734 31.6831 176.139 31.2633 176.368 30.7536C176.513 30.1939 176.576 29.6242 176.576 29.0545Z" fill="white"/>
<path d="M193.515 17.9604V34.0518H190.917V32.6526C190.481 33.1923 189.909 33.6021 189.254 33.8519C188.537 34.1418 187.747 34.2817 186.968 34.2517C185.908 34.2517 184.858 33.9819 183.954 33.4522C183.123 32.9524 182.468 32.2228 182.084 31.3533C181.865 30.8735 181.689 30.3638 181.564 29.8541C181.439 29.2944 181.367 28.7247 181.356 28.155C181.335 27.0556 181.543 25.9661 181.98 24.9567C182.364 24.0872 183.019 23.3575 183.85 22.8578C184.754 22.3281 185.804 22.0482 186.864 22.0582C187.644 22.0382 188.423 22.1682 189.15 22.458C189.784 22.7379 190.356 23.1477 190.813 23.6574V17.9604H193.515ZM190.813 27.9551C190.865 27.0256 190.564 26.1061 189.982 25.3565C189.67 25.0566 189.296 24.8168 188.891 24.6568C188.475 24.4969 188.038 24.437 187.592 24.457C186.978 24.417 186.355 24.5569 185.825 24.8567C185.316 25.1266 184.91 25.5464 184.682 26.0561C184.37 26.7457 184.224 27.5053 184.266 28.2549C184.224 29.0045 184.37 29.7641 184.682 30.4538C184.921 30.9635 185.316 31.3833 185.825 31.6531C186.365 31.933 186.978 32.0729 187.592 32.0529C188.038 32.0729 188.475 32.0029 188.891 31.853C189.306 31.6931 189.68 31.4632 189.982 31.1534C190.294 30.7936 190.533 30.3838 190.668 29.934C190.813 29.4843 190.855 29.0145 190.813 28.5548V27.9551Z" fill="white"/>
<path d="M70.1584 55.9402C68.8906 55.2405 67.9033 54.1511 67.3525 52.8418C66.7186 51.4226 66.438 49.8834 66.5211 48.3442C66.5003 46.775 66.7809 45.2159 67.3525 43.7467C67.9656 42.4773 68.9425 41.4079 70.1584 40.6483C71.551 39.8987 73.1306 39.5189 74.731 39.5489C75.791 39.5489 76.8407 39.7188 77.8487 40.0486C78.7425 40.3285 79.5634 40.8082 80.2389 41.4479C80.8937 41.9776 81.3925 42.6672 81.6939 43.4468C82.0264 44.2864 82.2343 45.1559 82.3174 46.0454H79.4076C79.3452 44.976 78.8983 43.9466 78.1605 43.147C77.2771 42.5073 76.2067 42.1275 75.1051 42.0576C73.9932 41.9876 72.8916 42.2275 71.9251 42.7472C71.1561 43.207 70.5429 43.8666 70.1584 44.6462C69.9194 45.1559 69.7531 45.6956 69.6388 46.2453C69.5037 46.935 69.4413 47.6446 69.4309 48.3442C69.4102 49.0438 69.4413 49.7435 69.5349 50.4431C69.6492 50.9928 69.8155 51.5325 70.0545 52.0422C70.4078 52.8518 71.0314 53.5115 71.8212 53.9412C72.6733 54.411 73.6398 54.6508 74.6271 54.6409C75.3026 54.6409 75.9677 54.5509 76.6016 54.341C77.1628 54.1611 77.6928 53.8913 78.1605 53.5414C78.5762 53.1716 78.9087 52.7219 79.1166 52.2221C79.3348 51.7224 79.4284 51.1827 79.4076 50.643H82.3174C82.307 51.5325 82.1303 52.412 81.7978 53.2416C81.4964 54.0212 80.9976 54.7108 80.3429 55.2405C79.6258 55.8802 78.7736 56.3599 77.8487 56.6398C76.8407 56.9696 75.791 57.1395 74.731 57.1395C73.1306 57.0895 71.5614 56.6798 70.1584 55.9402Z" fill="white"/>
<path d="M86.994 56.0401C86.0483 55.5304 85.3104 54.7208 84.9155 53.7413C84.4791 52.8318 84.2608 51.8424 84.292 50.8429C84.2816 49.8134 84.4894 48.794 84.9155 47.8445C85.3416 46.885 86.0691 46.0854 86.994 45.5457C88.054 45.016 89.2283 44.7461 90.4235 44.7461C91.6186 44.7461 92.7929 45.016 93.8529 45.5457C94.7986 46.0554 95.5365 46.865 95.9314 47.8445C96.3471 48.794 96.5549 49.8134 96.5549 50.8429C96.5549 51.8723 96.3471 52.8918 95.9314 53.8413C95.5053 54.8008 94.7778 55.6003 93.8529 56.1401C92.8033 56.6898 91.6186 56.9596 90.4235 56.9396C89.2179 56.9696 88.0228 56.6498 86.994 56.0401ZM92.2941 54.2411C92.7721 53.9412 93.167 53.5315 93.4372 53.0417C93.7178 52.3421 93.8529 51.5925 93.8529 50.8429C93.9153 50.0833 93.7698 49.3337 93.4372 48.6441C93.2086 48.1343 92.8033 47.7146 92.2941 47.4447C91.7121 47.1748 91.0678 47.0349 90.4235 47.0349C89.7791 47.0349 89.1348 47.1748 88.5528 47.4447C88.0748 47.7445 87.6799 48.1543 87.4097 48.6441C87.0875 49.3337 86.942 50.0833 86.994 50.8429C86.9524 51.5925 87.0979 52.3521 87.4097 53.0417C87.6383 53.5514 88.0436 53.9712 88.5528 54.2411C89.1244 54.5409 89.7687 54.6708 90.4235 54.6409C90.7456 54.7008 91.0782 54.6908 91.4003 54.6209C91.7225 54.5509 92.0239 54.421 92.2941 54.2411Z" fill="white"/>
<path d="M108.61 46.0454C109.046 46.5152 109.379 47.0749 109.597 47.6746C109.815 48.2743 109.899 48.9139 109.857 49.5436V56.6398H107.155V50.0433C107.217 49.2337 106.999 48.4242 106.531 47.7445C106.272 47.4947 105.97 47.3048 105.627 47.1848C105.284 47.0649 104.921 47.0149 104.557 47.0449C104.152 47.0349 103.757 47.0949 103.383 47.2348C103.008 47.3747 102.666 47.5846 102.375 47.8445C101.834 48.4941 101.574 49.3137 101.647 50.1433V56.6398H98.9451V45.1459H101.647V46.4452C102.084 45.8955 102.655 45.4657 103.31 45.1859C103.965 44.906 104.682 44.7861 105.388 44.8461C105.981 44.8161 106.583 44.906 107.134 45.1059C107.685 45.3158 108.194 45.6357 108.61 46.0454Z" fill="white"/>
<path d="M114.222 55.9402C113.869 55.5404 113.609 55.0806 113.453 54.5809C113.297 54.0812 113.235 53.5614 113.287 53.0417V47.2448H111.416V45.1459H113.287V40.4484H115.989V45.1459H119.418V47.2448H115.989V52.6419C115.926 53.1716 116.072 53.7113 116.404 54.1411C116.591 54.321 116.82 54.4609 117.08 54.5409C117.329 54.6309 117.599 54.6608 117.859 54.6409L119.314 54.441V56.6398C118.566 56.8097 117.797 56.8697 117.028 56.8397C116.519 56.8797 116.009 56.8097 115.531 56.6598C115.053 56.5099 114.606 56.26 114.222 55.9402Z" fill="white"/>
<path d="M124.614 45.1459H121.912V56.6398H124.614V45.1459Z" fill="white"/>
<path d="M137.293 46.0454C137.729 46.5152 138.062 47.0749 138.28 47.6746C138.498 48.2743 138.581 48.9139 138.54 49.5436V56.6398H135.838V50.0433C135.9 49.2337 135.682 48.4242 135.214 47.7445C134.955 47.4947 134.653 47.3048 134.31 47.1848C133.967 47.0649 133.604 47.0149 133.24 47.0449C132.834 47.0349 132.44 47.0949 132.065 47.2348C131.691 47.3747 131.348 47.5846 131.057 47.8445C130.517 48.4941 130.257 49.3137 130.33 50.1433V56.6398H127.628V45.1459H130.33V46.4452C130.766 45.8955 131.338 45.4657 131.993 45.1859C132.647 44.906 133.364 44.7861 134.071 44.8461C134.664 44.8161 135.266 44.906 135.817 45.1059C136.378 45.3158 136.877 45.6357 137.293 46.0454Z" fill="white"/>
<path d="M149.972 53.4415C150.086 53.1916 150.159 52.9218 150.179 52.6419H152.881C152.798 53.7513 152.279 54.7908 151.426 55.5404C150.876 56.0401 150.19 56.3899 149.452 56.5398C148.641 56.7897 147.81 56.9196 146.958 56.9396C145.731 56.9596 144.516 56.6898 143.424 56.1401C142.468 55.6103 141.71 54.8008 141.242 53.8413C140.795 52.9018 140.587 51.8723 140.618 50.8429C140.598 50.3032 140.629 49.7735 140.722 49.2437C140.816 48.764 140.951 48.2942 141.138 47.8445C141.564 46.885 142.292 46.0854 143.217 45.5457C144.277 45.016 145.451 44.7461 146.646 44.7461C147.841 44.7461 149.015 45.016 150.075 45.5457C151 46.0454 151.728 46.815 152.154 47.7445C152.393 48.2942 152.559 48.8639 152.674 49.4436C152.767 50.1433 152.798 50.8429 152.777 51.5425H143.217C143.217 52.1022 143.362 52.6519 143.632 53.1417C143.861 53.6514 144.266 54.0712 144.775 54.341C145.389 54.6409 146.064 54.7708 146.75 54.7408L148.205 54.5409C148.579 54.441 148.932 54.2711 149.244 54.0412C149.66 53.9412 149.764 53.7413 149.972 53.4415ZM143.736 48.5441C143.528 48.8739 143.414 49.2537 143.424 49.6435H150.179C150.179 49.2237 150.065 48.814 149.868 48.4442C149.597 47.9544 149.203 47.5446 148.724 47.2448C148.153 46.945 147.509 46.815 146.854 46.845C146.22 46.795 145.586 46.935 145.025 47.2348C144.474 47.5347 144.017 47.9944 143.736 48.5441Z" fill="white"/>
<path d="M165.04 46.0454C165.477 46.5152 165.809 47.0749 166.028 47.6746C166.246 48.2743 166.329 48.9139 166.287 49.5436V56.6398H163.585V50.0433C163.648 49.2337 163.43 48.4242 162.962 47.7445C162.702 47.4947 162.401 47.3048 162.058 47.1848C161.715 47.0649 161.351 47.0149 160.987 47.0449C160.582 47.0349 160.187 47.0949 159.813 47.2348C159.439 47.3747 159.096 47.5846 158.805 47.8445C158.265 48.4941 158.005 49.3137 158.077 50.1433V56.6398H155.375V45.1459H158.077V46.4452C158.514 45.8955 159.086 45.4657 159.74 45.1859C160.395 44.906 161.112 44.7861 161.829 44.8461C162.421 44.8161 163.024 44.906 163.575 45.1059C164.126 45.3158 164.635 45.6357 165.051 46.0454H165.04Z" fill="white"/>
<path d="M170.652 55.9402C170.299 55.5404 170.039 55.0806 169.883 54.5809C169.727 54.0812 169.665 53.5614 169.717 53.0417V47.2448H167.846V45.1459H169.717V40.4484H172.419V45.1459H175.848V47.2448H172.419V52.6419C172.356 53.1716 172.502 53.7113 172.835 54.1411C173.022 54.321 173.25 54.4609 173.51 54.5409C173.759 54.6309 174.03 54.6608 174.289 54.6409L175.744 54.441V56.6398C174.996 56.8097 174.227 56.8697 173.458 56.8397C172.949 56.8797 172.44 56.8097 171.962 56.6598C171.484 56.5099 171.037 56.26 170.652 55.9402Z" fill="white"/>
<path d="M188.735 49.8434V56.5398H186.033V55.2405C185.534 55.7902 184.91 56.22 184.204 56.4999C183.497 56.7797 182.738 56.8896 181.98 56.8397C181.055 56.8397 180.14 56.6798 179.278 56.3399C178.571 56.0601 178.01 55.5204 177.719 54.8407C177.521 54.361 177.407 53.8513 177.407 53.3415C177.386 52.8218 177.49 52.3121 177.719 51.8423C177.906 51.4126 178.197 51.0328 178.55 50.7229C178.914 50.4131 179.33 50.1832 179.797 50.0433C181.013 49.6935 182.271 49.5236 183.539 49.5436H186.033V48.5441C186.012 48.3342 185.939 48.1243 185.825 47.9444C185.513 47.1448 184.682 46.845 183.331 46.845C182.759 46.825 182.198 46.935 181.668 47.1448C181.273 47.3048 180.941 47.5846 180.733 47.9444C180.618 48.1943 180.546 48.4641 180.525 48.744H177.823C177.802 48.1643 177.916 47.5846 178.135 47.0449C178.862 45.5457 180.525 44.7461 183.227 44.7461C184.339 44.6962 185.44 44.906 186.448 45.3458C187.259 45.7056 187.893 46.3453 188.215 47.1448C188.631 47.9844 188.807 48.9139 188.735 49.8434ZM186.033 51.6424H183.746L181.564 51.8423C181.315 51.8723 181.086 51.9623 180.889 52.1022C180.691 52.2421 180.525 52.432 180.421 52.6419C180.286 53.1017 180.286 53.5814 180.421 54.0412C180.587 54.371 180.889 54.6209 181.252 54.7408C181.72 54.9107 182.208 54.9807 182.707 54.9407C183.393 54.9807 184.079 54.8407 184.682 54.5409C185.191 54.271 185.596 53.8513 185.825 53.3415C185.97 52.7818 186.033 52.2121 186.033 51.6424Z" fill="white"/>
<path d="M190.917 40.4484H193.619V56.6398H190.917V40.4484Z" fill="white"/>
<path d="M97.906 20.8589C98.7686 20.8589 99.4649 20.1892 99.4649 19.3597C99.4649 18.5301 98.7686 17.8605 97.906 17.8605C97.0435 17.8605 96.3472 18.5301 96.3472 19.3597C96.3472 20.1892 97.0435 20.8589 97.906 20.8589Z" fill="white"/>
<path d="M123.263 43.3469C124.126 43.3469 124.822 42.6772 124.822 41.8477C124.822 41.0181 124.126 40.3485 123.263 40.3485C122.401 40.3485 121.704 41.0181 121.704 41.8477C121.704 42.6772 122.401 43.3469 123.263 43.3469Z" fill="white"/>
<path d="M150.179 20.8589C151.042 20.8589 151.738 20.1892 151.738 19.3597C151.738 18.5301 151.042 17.8605 150.179 17.8605C149.317 17.8605 148.62 18.5301 148.62 19.3597C148.62 20.1892 149.317 20.8589 150.179 20.8589Z" fill="white"/>
</g>
<defs>
<clipPath id="clip0_122_13">
<rect width="440" height="75" fill="white"/>
</clipPath>
</defs>
</svg>
