<svg width="187" height="40" viewBox="0 0 187 40" fill="none" xmlns="http://www.w3.org/2000/svg">
<g clip-path="url(#clip0_65_5)">
<path d="M46.3103 21.5H17.9103C17.6725 20.8585 17.5375 20.1836 17.5103 19.5C17.5255 18.8474 17.6611 18.2033 17.9103 17.6H46.3103C46.3882 16.5271 46.5217 15.459 46.7103 14.4H16.2103C14.9421 15.8377 14.2323 17.683 14.2103 19.6C14.1845 21.5258 14.9006 23.3878 16.2103 24.8H46.7103C46.5103 23.6 46.4103 22.5 46.3103 21.5Z" fill="white"/>
<path d="M51.2103 35.7H8.91026C5.2261 31.1043 3.21843 25.3901 3.21843 19.5C3.21843 13.6099 5.2261 7.8957 8.91026 3.30001H51.1103C51.8877 2.19086 52.7222 1.12276 53.6103 0.100006H7.41026C2.6383 5.43522 0.00012207 12.3421 0.00012207 19.5C0.00012207 26.6579 2.6383 33.5648 7.41026 38.9H53.6103C52.7548 37.8761 51.9537 36.808 51.2103 35.7Z" fill="white"/>
<path d="M47.7103 28.6H13.4103C11.4489 25.9728 10.3958 22.7786 10.4103 19.5C10.4102 16.2237 11.4618 13.0339 13.4103 10.4H47.7103C48.0828 9.30965 48.5169 8.24127 49.0103 7.20001H11.9103C8.87444 10.5776 7.19495 14.9586 7.19495 19.5C7.19495 24.0414 8.87444 28.4224 11.9103 31.8H49.0103C48.5169 30.7588 48.0828 29.6904 47.7103 28.6Z" fill="white"/>
<path d="M65.8103 15.1C65.2676 14.4913 64.8546 13.7782 64.5967 13.0045C64.3388 12.2308 64.2414 11.4127 64.3103 10.6V0.100006H67.0103V10.5C66.9667 11.0031 67.0239 11.5098 67.1784 11.9906C67.3329 12.4714 67.5818 12.9165 67.9103 13.3C68.7263 13.8861 69.7056 14.2013 70.7103 14.2013C71.7149 14.2013 72.6943 13.8861 73.5103 13.3C73.8388 12.9165 74.0876 12.4714 74.2422 11.9906C74.3967 11.5098 74.4538 11.0031 74.4103 10.5V0.100006H77.1103V10.7C77.1734 11.5122 77.0732 12.3289 76.8156 13.1018C76.558 13.8747 76.1481 14.5881 75.6103 15.2C74.6103 16.2 73.0103 16.6 70.8103 16.6C68.6103 16.6 66.8103 16.1 65.8103 15.1Z" fill="white"/>
<path d="M89.3103 5.60001C89.7319 6.075 90.0551 6.62895 90.261 7.22974C90.467 7.83054 90.5517 8.46624 90.5103 9.10001V16.2H87.9103V9.60001C87.9687 8.78822 87.7578 7.97982 87.3103 7.30001C87.0637 7.05194 86.7659 6.86075 86.4377 6.73983C86.1095 6.61892 85.7588 6.5712 85.4103 6.60001C85.0246 6.58694 84.6402 6.65096 84.2796 6.78834C83.919 6.92571 83.5895 7.13366 83.3103 7.40001C82.7868 8.04656 82.5358 8.87151 82.6103 9.70001V16.2H80.0103V4.70001H82.6103V6.00001C83.0277 5.4525 83.5763 5.01893 84.2055 4.7393C84.8347 4.45967 85.5241 4.34299 86.2103 4.40001C86.7807 4.3843 87.3487 4.48232 87.8809 4.68834C88.4131 4.89437 88.899 5.20428 89.3103 5.60001Z" fill="white"/>
<path d="M95.5102 4.70001H92.9102V16.2H95.5102V4.70001Z" fill="white"/>
<path d="M97.1104 4.70001H99.9104L103.01 13.3L106.11 4.70001H108.91L104.51 16.2H101.61L97.1104 4.70001Z" fill="white"/>
<path d="M118.41 13C118.523 12.7469 118.59 12.4762 118.61 12.2H121.21C121.127 13.3089 120.627 14.345 119.81 15.1C119.283 15.6045 118.625 15.951 117.91 16.1C117.133 16.3464 116.325 16.4811 115.51 16.5C114.328 16.5206 113.159 16.2456 112.11 15.7C111.192 15.1659 110.459 14.3632 110.01 13.4C109.582 12.4597 109.376 11.4329 109.41 10.4C109.391 9.86468 109.424 9.32872 109.51 8.80001C109.597 8.32133 109.731 7.85239 109.91 7.40001C110.321 6.44388 111.02 5.63984 111.91 5.10001C112.931 4.57379 114.062 4.29922 115.21 4.29922C116.358 4.29922 117.49 4.57379 118.51 5.10001C119.397 5.5976 120.099 6.36957 120.51 7.30001C120.736 7.84746 120.904 8.4173 121.01 9.00001C121.099 9.69631 121.132 10.3985 121.11 11.1H111.91C111.91 11.6581 112.048 12.2076 112.31 12.7C112.533 13.2115 112.92 13.6339 113.41 13.9C113.998 14.1956 114.653 14.3335 115.31 14.3L116.71 14.1L117.71 13.6C118.11 13.5 118.21 13.2 118.41 13ZM112.41 8.10001C112.206 8.4298 112.101 8.812 112.11 9.20001H118.61C118.604 8.78218 118.502 8.3714 118.31 8.00001C118.053 7.51187 117.674 7.0985 117.21 6.80001C116.659 6.50341 116.036 6.36499 115.41 6.40001C114.802 6.37921 114.2 6.52699 113.671 6.82701C113.141 7.12702 112.705 7.56759 112.41 8.10001Z" fill="white"/>
<path d="M130.21 4.59999V6.89999H129.01C128.584 6.87145 128.157 6.93732 127.76 7.0929C127.362 7.24847 127.004 7.48992 126.71 7.79999C126.148 8.54658 125.865 9.46647 125.91 10.4V16.3H123.31V4.69999H125.91V5.99999C126.254 5.50395 126.72 5.10516 127.263 4.84233C127.806 4.57951 128.408 4.46158 129.01 4.49999L130.21 4.59999Z" fill="white"/>
<path d="M133.31 16C132.561 15.6518 131.958 15.0496 131.61 14.3C131.315 13.712 131.177 13.0573 131.21 12.4H133.71C133.719 12.7749 133.787 13.146 133.91 13.5C134.21 14.3 135.01 14.6 136.11 14.6C137.21 14.6 137.91 14.3 138.21 13.7C138.291 13.5107 138.325 13.3051 138.31 13.1C138.325 12.8949 138.291 12.6893 138.21 12.5L137.71 11.9L136.81 11.5L135.31 11.2C134.546 11.0271 133.807 10.7583 133.11 10.4C132.531 10.0936 132.073 9.60012 131.81 9.00001C131.637 8.58979 131.569 8.14321 131.61 7.70001C131.603 7.21668 131.706 6.73803 131.91 6.30001C132.248 5.6607 132.771 5.13801 133.41 4.80001C134.252 4.40348 135.182 4.23125 136.11 4.30001C137.033 4.30136 137.948 4.47079 138.81 4.80001C139.499 5.10298 140.064 5.63223 140.41 6.30001C140.624 6.84057 140.726 7.41889 140.71 8.00001H138.21C138.191 7.65888 138.124 7.32217 138.01 7.00001C137.857 6.69855 137.612 6.45348 137.31 6.30001C136.937 6.12188 136.521 6.05256 136.11 6.10001C135.11 6.10001 134.51 6.40001 134.31 6.90001C134.215 7.04818 134.18 7.2267 134.21 7.40001C134.18 7.57332 134.215 7.75185 134.31 7.90001C134.353 8.04165 134.43 8.1705 134.535 8.27516C134.64 8.37982 134.769 8.45705 134.91 8.50001L135.81 8.90001L137.21 9.20001C138.048 9.3878 138.856 9.69068 139.61 10.1C140.213 10.4069 140.703 10.8971 141.01 11.5C141.183 11.9102 141.252 12.3568 141.21 12.8C141.216 13.3155 141.114 13.8264 140.91 14.3C140.557 15.0227 139.953 15.5916 139.21 15.9C138.303 16.3205 137.31 16.5258 136.31 16.5C135.288 16.5151 134.272 16.3457 133.31 16Z" fill="white"/>
<path d="M145.81 4.70001H143.21V16.2H145.81V4.70001Z" fill="white"/>
<path d="M159.51 0.100006V16.2H157.01V14.8C156.594 15.3357 156.041 15.7501 155.41 16C154.716 16.2944 153.964 16.4311 153.21 16.4C152.188 16.408 151.184 16.131 150.31 15.6C149.509 15.1012 148.881 14.3681 148.51 13.5C148.299 13.016 148.132 12.514 148.01 12C147.889 11.4412 147.822 10.8718 147.81 10.3C147.786 9.20325 147.99 8.11344 148.41 7.10001C148.781 6.23193 149.409 5.49878 150.21 5.00001C151.084 4.46902 152.088 4.19199 153.11 4.20001C153.864 4.17838 154.613 4.31464 155.31 4.60001C155.922 4.88323 156.467 5.2921 156.91 5.80001V0.100006H159.51ZM157.01 10.1C157.056 9.16649 156.773 8.2466 156.21 7.50001C155.913 7.19534 155.554 6.95752 155.157 6.80234C154.761 6.64716 154.336 6.57819 153.91 6.60001C153.316 6.55549 152.722 6.69516 152.21 7.00001C151.72 7.26608 151.333 7.68849 151.11 8.20001C150.806 8.89162 150.669 9.64541 150.71 10.4C150.669 11.1546 150.806 11.9084 151.11 12.6C151.339 13.1074 151.725 13.5281 152.21 13.8C152.731 14.0836 153.318 14.2218 153.91 14.2C154.336 14.2218 154.761 14.1529 155.157 13.9977C155.554 13.8425 155.913 13.6047 156.21 13.3C156.51 12.942 156.736 12.5274 156.873 12.0809C157.011 11.6344 157.057 11.1648 157.01 10.7V10.1Z" fill="white"/>
<path d="M172.51 9.4V16.2H169.91V14.9C169.43 15.4519 168.827 15.884 168.15 16.1618C167.473 16.4395 166.74 16.5554 166.01 16.5C165.119 16.5079 164.235 16.338 163.41 16C162.733 15.7161 162.194 15.1774 161.91 14.5C161.715 14.024 161.613 13.5146 161.61 13C161.591 12.4834 161.694 11.9696 161.91 11.5C162.093 11.0728 162.367 10.6904 162.712 10.3796C163.057 10.0687 163.466 9.83683 163.91 9.7C165.078 9.35152 166.292 9.18292 167.51 9.2H169.91V8.2C169.89 7.98736 169.822 7.78213 169.71 7.6C169.41 6.8 168.61 6.5 167.31 6.5C166.762 6.48325 166.216 6.5856 165.71 6.8C165.327 6.95544 165.01 7.23792 164.81 7.6C164.698 7.85313 164.63 8.12379 164.61 8.4H162.01C161.994 7.81888 162.096 7.24056 162.31 6.7C163.01 5.2 164.61 4.4 167.21 4.4C168.276 4.354 169.338 4.55954 170.31 5C171.089 5.35663 171.699 6.00211 172.01 6.8C172.417 7.60265 172.591 8.5036 172.51 9.4ZM169.91 11.2H167.71L165.61 11.4C165.374 11.4289 165.149 11.5175 164.957 11.6574C164.764 11.7974 164.611 11.9841 164.51 12.2C164.422 12.422 164.387 12.662 164.41 12.9C164.387 13.138 164.422 13.378 164.51 13.6C164.675 13.9294 164.962 14.1809 165.31 14.3C165.756 14.4702 166.235 14.5386 166.71 14.5C167.368 14.5432 168.026 14.4048 168.61 14.1C169.101 13.8339 169.488 13.4115 169.71 12.9C169.846 12.3436 169.913 11.7727 169.91 11.2Z" fill="white"/>
<path d="M186.21 0.100006V16.2H183.71V14.8C183.294 15.3357 182.741 15.7501 182.11 16C181.416 16.2944 180.664 16.4311 179.91 16.4C178.888 16.408 177.884 16.131 177.01 15.6C176.209 15.1012 175.581 14.3681 175.21 13.5C174.999 13.016 174.832 12.514 174.71 12C174.588 11.4412 174.522 10.8718 174.51 10.3C174.486 9.20325 174.69 8.11344 175.11 7.10001C175.481 6.23193 176.109 5.49878 176.91 5.00001C177.784 4.46902 178.788 4.19199 179.81 4.20001C180.563 4.17838 181.313 4.31464 182.01 4.60001C182.622 4.88323 183.167 5.2921 183.61 5.80001V0.100006H186.21ZM183.61 10.1C183.656 9.16649 183.372 8.2466 182.81 7.50001C182.513 7.19534 182.154 6.95752 181.757 6.80234C181.361 6.64716 180.936 6.57819 180.51 6.60001C179.916 6.55549 179.322 6.69516 178.81 7.00001C178.32 7.26608 177.933 7.68849 177.71 8.20001C177.406 8.89162 177.269 9.64541 177.31 10.4C177.269 11.1546 177.406 11.9084 177.71 12.6C177.939 13.1074 178.325 13.5281 178.81 13.8C179.331 14.0836 179.918 14.2218 180.51 14.2C180.936 14.2218 181.361 14.1529 181.757 13.9977C182.154 13.8425 182.513 13.6047 182.81 13.3C183.11 12.942 183.336 12.5274 183.473 12.0809C183.611 11.6344 183.657 11.1648 183.61 10.7V10.1Z" fill="white"/>
<path d="M67.5101 38.1C66.2888 37.3976 65.3382 36.3062 64.8102 35C64.2031 33.5808 63.9295 32.0414 64.0102 30.5C63.9879 28.9302 64.2592 27.3701 64.8102 25.9C65.3993 24.6324 66.3354 23.5576 67.5101 22.8C68.8538 22.0508 70.372 21.6712 71.9102 21.7C72.9307 21.7027 73.9439 21.8716 74.9102 22.2C75.7745 22.4832 76.5616 22.9623 77.2101 23.6C77.8414 24.1349 78.3236 24.8238 78.6101 25.6C78.9266 26.4356 79.1284 27.3102 79.2101 28.2H76.4102C76.3464 27.1262 75.9238 26.1049 75.2101 25.3C74.3568 24.6581 73.3351 24.2785 72.2697 24.2074C71.2042 24.1364 70.1411 24.377 69.2101 24.9C68.4722 25.3562 67.8818 26.016 67.5101 26.8C67.2842 27.313 67.1165 27.8497 67.0101 28.4C66.8844 29.0931 66.8175 29.7956 66.8102 30.5C66.7884 31.2015 66.8219 31.9037 66.9102 32.6C67.0165 33.1504 67.1842 33.687 67.4102 34.2C67.748 35.0059 68.3466 35.675 69.1101 36.1C69.9333 36.5658 70.8644 36.8072 71.8102 36.8C72.4558 36.8065 73.0979 36.7051 73.7101 36.5C74.2499 36.3158 74.7564 36.0457 75.2101 35.7C75.6105 35.3341 75.9255 34.8847 76.1329 34.3835C76.3402 33.8824 76.4349 33.3418 76.4102 32.8H79.2101C79.199 33.6895 79.0297 34.5699 78.7101 35.4C78.4236 36.1762 77.9414 36.8651 77.3102 37.4C76.6243 38.0395 75.8044 38.5178 74.9102 38.8C73.9439 39.1284 72.9307 39.2973 71.9102 39.3C70.3701 39.2479 68.8634 38.837 67.5101 38.1Z" fill="white"/>
<path d="M83.7103 38.2C82.7964 37.6893 82.0891 36.876 81.7103 35.9C81.2898 34.9924 81.0845 34 81.1103 33C81.0962 31.9689 81.3007 30.9464 81.7103 30C82.1214 29.0439 82.8205 28.2398 83.7103 27.7C84.7307 27.1738 85.8622 26.8992 87.0103 26.8992C88.1584 26.8992 89.2899 27.1738 90.3103 27.7C91.2242 28.2107 91.9315 29.024 92.3103 30C92.7064 30.9506 92.9103 31.9702 92.9103 33C92.9103 34.0298 92.7064 35.0494 92.3103 36C91.8993 36.9561 91.2001 37.7602 90.3103 38.3C89.2973 38.8456 88.1608 39.1211 87.0103 39.1C85.8463 39.1266 84.6997 38.8138 83.7103 38.2ZM88.8103 36.4C89.2743 36.1015 89.6532 35.6881 89.9103 35.2C90.1759 34.497 90.3114 33.7515 90.3103 33C90.3733 32.2442 90.2353 31.4852 89.9103 30.8C89.6878 30.2885 89.3006 29.8661 88.8103 29.6C88.2478 29.3332 87.6329 29.1947 87.0103 29.1947C86.3877 29.1947 85.7729 29.3332 85.2103 29.6C84.7463 29.8985 84.3674 30.3119 84.1103 30.8C83.7981 31.4893 83.6607 32.2449 83.7103 33C83.6686 33.7546 83.8057 34.5084 84.1103 35.2C84.3328 35.7115 84.72 36.1339 85.2103 36.4C85.762 36.6966 86.3849 36.835 87.0103 36.8C87.3219 36.8553 87.6414 36.8484 87.9503 36.7798C88.2592 36.7111 88.5515 36.5821 88.8103 36.4Z" fill="white"/>
<path d="M104.51 28.2C104.932 28.675 105.255 29.2289 105.461 29.8297C105.667 30.4305 105.752 31.0662 105.71 31.7V38.8H103.11V32.2C103.169 31.3882 102.958 30.5798 102.51 29.9C102.264 29.6519 101.966 29.4607 101.638 29.3398C101.309 29.2189 100.959 29.1712 100.61 29.2C100.225 29.1869 99.8402 29.2509 99.4796 29.3883C99.119 29.5257 98.7894 29.7336 98.5102 30C97.9868 30.6465 97.7357 31.4715 97.8102 32.3V38.8H95.2102V27.3H97.8102V28.6C98.2277 28.0525 98.7763 27.6189 99.4054 27.3393C100.035 27.0596 100.724 26.943 101.41 27C101.983 26.9661 102.556 27.0557 103.091 27.2627C103.626 27.4698 104.11 27.7894 104.51 28.2Z" fill="white"/>
<path d="M109.91 38.1C109.574 37.7014 109.321 37.2393 109.166 36.7412C109.012 36.2431 108.959 35.719 109.01 35.2V29.4H107.21V27.3H109.01V22.6H111.61V27.3H114.91V29.4H111.61V34.8C111.547 35.3327 111.69 35.8695 112.01 36.3C112.194 36.4782 112.415 36.6151 112.656 36.7013C112.898 36.7875 113.155 36.8212 113.41 36.8L114.81 36.6V38.8C114.089 38.9656 113.349 39.0329 112.61 39C112.123 39.0356 111.634 38.9745 111.17 38.82C110.707 38.6655 110.279 38.4208 109.91 38.1Z" fill="white"/>
<path d="M119.91 27.3H117.31V38.8H119.91V27.3Z" fill="white"/>
<path d="M132.11 28.2C132.532 28.675 132.855 29.2289 133.061 29.8297C133.267 30.4305 133.352 31.0662 133.31 31.7V38.8H130.71V32.2C130.769 31.3882 130.558 30.5798 130.11 29.9C129.864 29.6519 129.566 29.4607 129.238 29.3398C128.91 29.2189 128.559 29.1712 128.21 29.2C127.825 29.1869 127.44 29.2509 127.08 29.3883C126.719 29.5257 126.39 29.7336 126.11 30C125.587 30.6465 125.336 31.4715 125.41 32.3V38.8H122.81V27.3H125.41V28.6C125.828 28.0525 126.376 27.6189 127.006 27.3393C127.635 27.0596 128.324 26.943 129.01 27C129.583 26.9661 130.156 27.0557 130.691 27.2627C131.226 27.4698 131.71 27.7894 132.11 28.2Z" fill="white"/>
<path d="M144.31 35.6C144.422 35.3469 144.49 35.0762 144.51 34.8H147.11C147.027 35.9089 146.526 36.945 145.71 37.7C145.183 38.2045 144.525 38.551 143.81 38.7C143.033 38.9464 142.225 39.0811 141.41 39.1C140.228 39.1206 139.059 38.8456 138.01 38.3C137.092 37.7659 136.359 36.9632 135.91 36C135.481 35.0597 135.276 34.0329 135.31 33C135.29 32.4647 135.324 31.9287 135.41 31.4C135.497 30.9213 135.631 30.4524 135.81 30C136.221 29.0439 136.92 28.2398 137.81 27.7C138.831 27.1738 139.962 26.8992 141.11 26.8992C142.258 26.8992 143.39 27.1738 144.41 27.7C145.297 28.1976 145.999 28.9696 146.41 29.9C146.636 30.4475 146.804 31.0173 146.91 31.6C146.998 32.2963 147.032 32.9985 147.01 33.7H137.81C137.81 34.2581 137.948 34.8076 138.21 35.3C138.433 35.8115 138.82 36.2339 139.31 36.5C139.898 36.7956 140.553 36.9335 141.21 36.9L142.61 36.7C142.971 36.5953 143.31 36.4259 143.61 36.2C144.01 36.1 144.11 35.9 144.31 35.6ZM138.31 30.7C138.106 31.0298 138.001 31.412 138.01 31.8H144.51C144.504 31.3822 144.402 30.9714 144.21 30.6C143.953 30.1119 143.574 29.6985 143.11 29.4C142.558 29.1034 141.936 28.965 141.31 29C140.698 28.9545 140.086 29.0918 139.552 29.3944C139.018 29.6971 138.586 30.1515 138.31 30.7Z" fill="white"/>
<path d="M158.81 28.2C159.232 28.675 159.555 29.2289 159.761 29.8297C159.967 30.4305 160.052 31.0662 160.01 31.7V38.8H157.41V32.2C157.469 31.3882 157.258 30.5798 156.81 29.9C156.564 29.6519 156.266 29.4607 155.938 29.3398C155.609 29.2189 155.259 29.1712 154.91 29.2C154.525 29.1869 154.14 29.2509 153.78 29.3883C153.419 29.5257 153.089 29.7336 152.81 30C152.287 30.6465 152.036 31.4715 152.11 32.3V38.8H149.51V27.3H152.11V28.6C152.528 28.0525 153.076 27.6189 153.705 27.3393C154.335 27.0596 155.024 26.943 155.71 27C156.283 26.9661 156.856 27.0557 157.391 27.2627C157.926 27.4698 158.41 27.7894 158.81 28.2Z" fill="white"/>
<path d="M164.21 38.1C163.874 37.7014 163.621 37.2393 163.466 36.7412C163.312 36.2431 163.259 35.719 163.31 35.2V29.4H161.51V27.3H163.31V22.6H165.91V27.3H169.21V29.4H165.91V34.8C165.847 35.3327 165.99 35.8695 166.31 36.3C166.495 36.4782 166.715 36.6151 166.956 36.7013C167.198 36.7875 167.455 36.8212 167.71 36.8L169.11 36.6V38.8C168.389 38.9656 167.649 39.0329 166.91 39C166.423 39.0356 165.934 38.9745 165.47 38.82C165.007 38.6655 164.579 38.4208 164.21 38.1Z" fill="white"/>
<path d="M181.61 32V38.7H179.01V37.4C178.53 37.9519 177.927 38.384 177.25 38.6618C176.573 38.9395 175.84 39.0554 175.11 39C174.219 39.0079 173.335 38.838 172.51 38.5C171.833 38.2161 171.294 37.6774 171.01 37C170.815 36.524 170.713 36.0146 170.71 35.5C170.691 34.9834 170.794 34.4696 171.01 34C171.193 33.5728 171.466 33.1904 171.812 32.8796C172.157 32.5687 172.566 32.3368 173.01 32.2C174.178 31.8515 175.392 31.6829 176.61 31.7H179.01V30.7C178.99 30.4874 178.922 30.2821 178.81 30.1C178.51 29.3 177.71 29 176.41 29C175.861 28.9832 175.316 29.0856 174.81 29.3C174.427 29.4554 174.109 29.7379 173.91 30.1C173.798 30.3531 173.73 30.6238 173.71 30.9H171.11C171.094 30.3189 171.196 29.7406 171.41 29.2C172.11 27.7 173.71 26.9 176.31 26.9C177.376 26.854 178.438 27.0595 179.41 27.5C180.189 27.8566 180.799 28.5021 181.11 29.3C181.507 30.1419 181.679 31.072 181.61 32ZM179.01 33.8H176.81L174.71 34C174.474 34.0289 174.249 34.1175 174.057 34.2574C173.864 34.3974 173.71 34.5841 173.61 34.8C173.477 35.2571 173.477 35.7429 173.61 36.2C173.774 36.5294 174.062 36.7809 174.41 36.9C174.856 37.0702 175.334 37.1386 175.81 37.1C176.468 37.1432 177.125 37.0048 177.71 36.7C178.2 36.4339 178.588 36.0115 178.81 35.5C178.946 34.9436 179.013 34.3727 179.01 33.8Z" fill="white"/>
<path d="M183.71 22.6H186.31V38.8H183.71V22.6Z" fill="white"/>
<path d="M94.2102 3C95.0386 3 95.7102 2.32843 95.7102 1.5C95.7102 0.671573 95.0386 0 94.2102 0C93.3818 0 92.7102 0.671573 92.7102 1.5C92.7102 2.32843 93.3818 3 94.2102 3Z" fill="white"/>
<path d="M118.61 25.5C119.439 25.5 120.11 24.8284 120.11 24C120.11 23.1716 119.439 22.5 118.61 22.5C117.782 22.5 117.11 23.1716 117.11 24C117.11 24.8284 117.782 25.5 118.61 25.5Z" fill="white"/>
<path d="M144.51 3C145.339 3 146.01 2.32843 146.01 1.5C146.01 0.671573 145.339 0 144.51 0C143.682 0 143.01 0.671573 143.01 1.5C143.01 2.32843 143.682 3 144.51 3Z" fill="white"/>
</g>
<defs>
<clipPath id="clip0_65_5">
<rect width="186.3" height="39.3" fill="white"/>
</clipPath>
</defs>
</svg>
