<svg width="78" height="78" viewBox="0 0 78 78" fill="none" xmlns="http://www.w3.org/2000/svg">
<rect width="78" height="78" fill="#111111"/>
<path d="M58.3101 41.4H29.9101C29.6724 40.7585 29.5374 40.0836 29.5101 39.4C29.5253 38.7474 29.6609 38.1033 29.9101 37.5H58.3101C58.388 36.4271 58.5216 35.359 58.7101 34.3H28.2101C26.942 35.7377 26.2322 37.583 26.2101 39.5C26.1844 41.4258 26.9005 43.2878 28.2101 44.7H58.7101C58.5101 43.5 58.4101 42.4 58.3101 41.4Z" fill="white"/>
<path d="M63.2101 55.6H20.9101C17.226 51.0043 15.2183 45.2901 15.2183 39.4C15.2183 33.5099 17.226 27.7957 20.9101 23.2H63.1101C63.8876 22.0909 64.7221 21.0228 65.6101 20H19.4101C14.6382 25.3352 12 32.2421 12 39.4C12 46.5579 14.6382 53.4648 19.4101 58.8H65.6101C64.7547 57.7761 63.9536 56.708 63.2101 55.6Z" fill="white"/>
<path d="M59.7102 48.5H25.4102C23.4488 45.8728 22.3957 42.6786 22.4102 39.4C22.41 36.1237 23.4616 32.9339 25.4102 30.3H59.7102C60.0827 29.2096 60.5167 28.1413 61.0102 27.1H23.9102C20.8743 30.4776 19.1948 34.8586 19.1948 39.4C19.1948 43.9414 20.8743 48.3224 23.9102 51.7H61.0102C60.5167 50.6588 60.0827 49.5904 59.7102 48.5Z" fill="white"/>
</svg>
