<svg width="198" height="198" viewBox="0 0 198 198" fill="none" xmlns="http://www.w3.org/2000/svg">
<path d="M168.869 107.23H66.4171C65.5595 104.916 65.0725 102.481 64.9742 100.015C65.029 97.6613 65.5182 95.3375 66.4171 93.1612H168.869C169.15 89.2909 169.631 85.4377 170.312 81.6173H60.2845C55.7095 86.8038 53.1492 93.4607 53.0696 100.376C52.9767 107.323 55.5601 114.04 60.2845 119.135H170.312C169.59 114.806 169.23 110.838 168.869 107.23Z" fill="white"/>
<path d="M186.545 158.456H33.95C20.6596 141.877 13.417 121.264 13.417 100.015C13.417 78.7671 20.6596 58.1534 33.95 41.5746H186.185C188.989 37.5734 192 33.7203 195.203 30.0308H28.5389C11.3242 49.2773 1.80713 74.1934 1.80713 100.015C1.80713 125.837 11.3242 150.753 28.5389 170H195.203C192.117 166.306 189.227 162.453 186.545 158.456Z" fill="white"/>
<path d="M173.919 132.843H50.1836C43.1079 123.366 39.3092 111.843 39.3613 100.015C39.3608 88.1963 43.1544 76.6892 50.1836 67.1876H173.919C175.263 63.2541 176.829 59.4 178.609 55.6437H44.7724C33.8208 67.8282 27.7621 83.6325 27.7621 100.015C27.7621 116.398 33.8208 132.203 44.7724 144.387H178.609C176.829 140.631 175.263 136.777 173.919 132.843Z" fill="white"/>
</svg>
